<?xml version="1.0" encoding="utf-8"?>
<svg id="master-artboard" viewBox="0 0 1400 980" version="1.1" xmlns="http://www.w3.org/2000/svg" x="0px" y="0px" width="1400px" height="980px" enable-background="new 0 0 1400 980">
<path fill="#E8E6D2" d="M382.9,249.8c-0.7-0.5-1.6-0.5-2.4-0.1l-82.4,45.2c-0.3-0.8-0.5-1.6-0.8-2.4c1.2-5.5,7.5-40-13.8-67.6&#10;&#9;&#9;&#9;c-0.5-0.6-1-1.3-1.5-1.9c5.8-4.1,20.5-16.5,28.4-42.5c5-16.3,6.3-35.2,3.8-56.1c-0.1-0.7-0.4-1.2-1-1.6c-0.5-0.4-1.2-0.5-1.8-0.4&#10;&#9;&#9;&#9;c-0.1,0-0.3,0.1-0.6,0.1c-0.6,0.2-1.7,0.5-3.1,0.9c-0.1,0-0.3,0.1-0.4,0.1c-6,2-17.9,6.9-30.6,17.2c-17.2,14-29.7,32.8-37.4,56&#10;&#9;&#9;&#9;c-12.2-3.5-26.3-5.4-42-5.7c-15.7,0.3-29.7,2.2-41.9,5.7c-7.6-23.2-20.2-42-37.4-56c-17.8-14.6-34-18.3-34.7-18.4&#10;&#9;&#9;&#9;c-0.6-0.1-1.3,0-1.8,0.4c-0.5,0.4-0.9,1-1,1.6c-0.2,1.3-0.3,2.6-0.4,3.9c-1.6,16.8-0.8,32.2,2.5,45.9c0.1,0.6,0.3,1.2,0.5,1.8&#10;&#9;&#9;&#9;c0.1,0.4,0.2,0.9,0.3,1.3c0.3,1,0.6,2.1,0.9,3.1c0,0,0,0,0,0c7.8,26,22.6,38.4,28.4,42.5c-0.5,0.6-1,1.2-1.5,1.9&#10;&#9;&#9;&#9;c-21.3,27.6-15,62.1-13.8,67.6c-6.8,18.9-6.3,34.6,1.5,46.7c11.1,17.2,33.4,21.9,41.6,23.1c-20.2,54.2-9.8,79-2.8,88.3l-13.8,11.5&#10;&#9;&#9;&#9;c-0.1,0.1-0.2,0.1-0.2,0.2c-1.4,1.5-2.4,3.7-1.1,5.5c0.6,0.8,1.4,1.5,3.5,1.5c3.5,0,10.5-2,25.6-8.7c8.5,3.2,16.6,2.5,21.3,1.5&#10;&#9;&#9;&#9;c3-0.6,5.7-1.9,8.1-3c5.3-2.6,16.5-3.2,16.3-3.2c0.1,0,11.2,0.6,16.6,3.2c2.3,1.1,5.1,2.4,8.1,3c2.2,0.4,5,0.8,8.3,0.8&#10;&#9;&#9;&#9;c3.9,0,8.4-0.6,13.1-2.3c15.1,6.7,22.1,8.7,25.6,8.7c2,0,2.9-0.7,3.5-1.5c1.3-1.8,0.3-4-1.1-5.5c-0.1-0.1-0.1-0.1-0.2-0.2&#10;&#9;&#9;&#9;l-13.8-11.5c2.4-3.2,5.1-8,6.9-15.1l23.3-12.9c0.7-0.4,1.1-1.1,1.2-1.8l1.4-16.3l13.3-7.6c0.3-0.2,0.6-0.4,0.8-0.8l24.7-38.6&#10;&#9;&#9;&#9;l41.8-2.3c1.1-0.1,2-0.9,2.2-2.1L383.9,252C384,251.1,383.6,250.3,382.9,249.8z M254.3,362.3c6.3-0.9,21.2-3.9,32.7-13.3&#10;&#9;&#9;&#9;l-0.5,25.7l-15.2,12.1c-0.5,0.4-0.9,1.1-0.9,1.8v8.6v8.6l-4.8,2.8C264.6,396.3,261.3,381.1,254.3,362.3z" transform="matrix(1, 0, 0, 1, 486.96097109480957, 185.7665953333833)"/><g transform="matrix(1, 0, 0, 1, 486.96097109480957, 185.7665953333833)">
				<path fill="#FEF163" d="M375.9,246l-11.2,101.2l-43,2.3l-25.3,39.6l-14.4,8.2l-0.8,8.7l-0.8,8.8l-24.3,13.4&#10;&#9;&#9;&#9;&#9;&#9;c1.4-5.6,2.1-12.7,1.7-21.4l9.2-5.4v-18.5l16-12.8l1.4-74L375.9,246z"/>
				<path fill="#3C2415" d="M256.2,430.5c-0.5,0-1-0.2-1.4-0.5c-0.7-0.6-1.1-1.5-0.8-2.4c1.4-6,2-13,1.6-20.8c0-0.9,0.4-1.7,1.1-2.1&#10;&#9;&#9;&#9;&#9;&#9;l8-4.7v-17.2c0-0.7,0.3-1.4,0.9-1.8l15.1-12.1l1.4-72.9c0-0.8,0.5-1.6,1.2-2l91.5-50.1c0.8-0.4,1.7-0.4,2.4,0.1&#10;&#9;&#9;&#9;&#9;&#9;c0.7,0.5,1.1,1.3,1,2.2L367,347.4c-0.1,1.1-1,2-2.2,2.1l-41.8,2.3l-24.7,38.6c-0.2,0.3-0.5,0.6-0.8,0.8l-13.3,7.6l-1.4,16.3&#10;&#9;&#9;&#9;&#9;&#9;c-0.1,0.8-0.5,1.4-1.2,1.8l-24.3,13.4C257,430.4,256.6,430.5,256.2,430.5z M260.2,408.1c0.2,5.6-0.1,10.9-0.8,15.7l18.8-10.4&#10;&#9;&#9;&#9;&#9;&#9;l1.4-16.2c0.1-0.8,0.5-1.4,1.2-1.8l13.9-7.9l25-39.1c0.4-0.6,1.1-1,1.8-1.1l41-2.2l10.5-94.8l-86.4,47.4l-1.4,72.7&#10;&#9;&#9;&#9;&#9;&#9;c0,0.7-0.3,1.3-0.9,1.8L269.4,384v17.4c0,0.8-0.4,1.6-1.1,2L260.2,408.1z"/>
			</g><path fill="#3C2415" d="M281.2,406l-0.8,8.8l-24.3,13.4c1.4-5.6,2.1-12.7,1.7-21.4l9.2-5.4v-9.9L281.2,406z" transform="matrix(1, 0, 0, 1, 486.96097109480957, 185.7665953333833)"/><path fill="#3C2415" d="M256.2,430.5c-0.5,0-1-0.2-1.4-0.5c-0.7-0.6-1.1-1.5-0.8-2.4c1.4-6,2-13,1.6-20.8c0-0.9,0.4-1.7,1.1-2.1&#10;&#9;&#9;&#9;&#9;&#9;l8-4.7v-8.6c0-0.9,0.6-1.8,1.4-2.1c0.9-0.4,1.9-0.1,2.5,0.5l14.2,14.5c0.5,0.5,0.7,1.1,0.7,1.8l-0.8,8.8&#10;&#9;&#9;&#9;&#9;&#9;c-0.1,0.8-0.5,1.4-1.2,1.8l-24.3,13.4C257,430.4,256.6,430.5,256.2,430.5z M260.2,408.1c0.2,5.6-0.1,10.9-0.8,15.7l18.8-10.4&#10;&#9;&#9;&#9;&#9;&#9;l0.6-6.5l-9.5-9.7v4.2c0,0.8-0.4,1.6-1.1,2L260.2,408.1z" transform="matrix(1, 0, 0, 1, 486.96097109480957, 185.7665953333833)"/><path fill="#FEF163" d="M289.2,286.9c0,0,23.4-96.8-97.6-99.1c-121,2.3-97.6,99.1-97.6,99.1c-23.1,62.7,43.9,67.7,43.9,67.7&#10;&#9;&#9;&#9;&#9;&#9;c-28.5,74,0,93.2,0,93.2c10.6,8.2,22.1,7.6,28.8,6.3c2.6-0.5,5.1-1.6,7.5-2.8c5.8-2.8,17.5-3.4,17.5-3.4s11.6,0.6,17.5,3.4&#10;&#9;&#9;&#9;&#9;&#9;c2.4,1.2,4.9,2.3,7.5,2.8c6.6,1.4,18.1,1.9,28.8-6.3c0,0,28.5-19.3,0-93.2C245.3,354.6,312.3,349.6,289.2,286.9z" transform="matrix(1, 0, 0, 1, 486.96097109480957, 185.7665953333833)"/><path fill="#3C2415" d="M224.4,457.2c-3.3,0-6.1-0.4-8.3-0.8c-3-0.6-5.7-1.9-8.1-3c-5.3-2.6-16.5-3.2-16.6-3.2&#10;&#9;&#9;&#9;&#9;&#9;c0.1,0-11,0.6-16.3,3.2c-2.3,1.1-5.1,2.4-8.1,3c-6.5,1.3-19.1,2.2-30.6-6.7c-1.1-0.7-28.9-20.6-1.8-93.1&#10;&#9;&#9;&#9;&#9;&#9;c-8.2-1.2-30.5-5.9-41.6-23.1c-7.8-12.1-8.3-27.8-1.5-46.7c-1.2-5.5-7.5-40,13.8-67.6c16.7-21.6,45.6-32.9,86.1-33.7&#10;&#9;&#9;&#9;&#9;&#9;c40.6,0.8,69.6,12.1,86.2,33.7c21.3,27.6,15,62.1,13.8,67.6c6.8,18.9,6.3,34.6-1.5,46.7c-11.1,17.2-33.4,21.9-41.6,23.1&#10;&#9;&#9;&#9;&#9;&#9;c27.1,72.5-0.7,92.4-1.9,93.2C239,455.6,230.9,457.2,224.4,457.2z M191.5,445.5c0.7,0,12.4,0.7,18.6,3.7c2.1,1,4.5,2.1,7,2.6&#10;&#9;&#9;&#9;&#9;&#9;c7,1.4,17.3,1.6,26.9-5.8c0.4-0.3,26.6-19.6-0.7-90.6c-0.3-0.7-0.2-1.4,0.2-2.1c0.4-0.6,1.1-1,1.8-1.1c0.3,0,28.9-2.4,41.1-21.3&#10;&#9;&#9;&#9;&#9;&#9;c7.1-11,7.3-25.5,0.8-43.2c-0.2-0.4-0.2-0.9-0.1-1.3c0.1-0.4,8.5-36.8-12.9-64.4c-15.8-20.4-43.5-31.1-82.5-31.8&#10;&#9;&#9;&#9;&#9;&#9;c-38.9,0.7-66.7,11.5-82.5,31.9c-21.4,27.7-12.9,64-12.8,64.4c0.1,0.4,0.1,0.9-0.1,1.3c-6.5,17.7-6.3,32.3,0.8,43.2&#10;&#9;&#9;&#9;&#9;&#9;c12.2,19,40.8,21.3,41.1,21.3c0.7,0.1,1.4,0.5,1.8,1.1c0.4,0.6,0.5,1.4,0.2,2.1c-27.5,71.4-1.1,90.3-0.9,90.5&#10;&#9;&#9;&#9;&#9;&#9;c9.7,7.5,20,7.4,27,5.9c2.5-0.5,4.9-1.6,7-2.6C179.3,446.2,191,445.5,191.5,445.5z" transform="matrix(1, 0, 0, 1, 486.96097109480957, 185.7665953333833)"/><path fill="#FEF163" d="M135.1,445.2l-15.6,12.9c0,0-9.1,9.9,26.2-5.8C145.7,452.3,138.3,449.7,135.1,445.2z" transform="matrix(1, 0, 0, 1, 486.96097109480957, 185.7665953333833)"/><path fill="#3C2415" d="M120.1,463.5c-2,0-2.9-0.7-3.5-1.5c-1.3-1.8-0.3-4,1.1-5.5c0.1-0.1,0.1-0.1,0.2-0.2l15.6-12.9&#10;&#9;&#9;&#9;&#9;&#9;c0.5-0.4,1.1-0.6,1.8-0.5c0.6,0.1,1.2,0.4,1.6,1c2.3,3.3,7.6,5.7,9.5,6.4c0.9,0.3,1.5,1.1,1.5,2.1c0,0.9-0.5,1.8-1.4,2.2&#10;&#9;&#9;&#9;&#9;&#9;C130.9,461.4,123.7,463.5,120.1,463.5z M134.8,448.4l-12.3,10.2c2.6-0.6,7.8-2.2,17.6-6.4C138.3,451.3,136.4,450,134.8,448.4z" transform="matrix(1, 0, 0, 1, 486.96097109480957, 185.7665953333833)"/><path fill="#FEF163" d="M148.1,194c0,0-23.3,6.5-37.7,22.8c0,0-20.1-11.2-29.6-42.7C76.5,160,74.4,141.9,77,119&#10;&#9;&#9;&#9;&#9;&#9;c0,0,16.1,3.6,33.7,18C124.6,148.2,139.4,166.1,148.1,194z" transform="matrix(1, 0, 0, 1, 486.96097109480957, 185.7665953333833)"/><path fill="#3C2415" d="M110.4,219.1c-0.4,0-0.8-0.1-1.1-0.3c-0.9-0.5-21.1-12-30.7-44c-5-16.3-6.3-35.2-3.8-56.1&#10;&#9;&#9;&#9;&#9;&#9;c0.1-0.7,0.4-1.2,1-1.6c0.5-0.4,1.2-0.5,1.8-0.4c0.7,0.2,16.9,3.9,34.7,18.4c17.7,14.4,30.5,34,38.1,58.2&#10;&#9;&#9;&#9;&#9;&#9;c0.2,0.6,0.1,1.2-0.2,1.8c-0.3,0.5-0.8,1-1.4,1.1c-0.2,0.1-22.9,6.5-36.6,22.1C111.7,218.8,111.1,219.1,110.4,219.1z&#10;&#9;&#9;&#9;&#9;&#9; M79.1,121.9c-2,19.2-0.6,36.5,3.9,51.5c7.6,25.2,22.3,37.1,27,40.4c12.1-12.8,29-19.3,35.2-21.3c-7.4-22.3-19.4-40.4-35.9-53.8&#10;&#9;&#9;&#9;&#9;&#9;C96.4,128.1,84.2,123.5,79.1,121.9z" transform="matrix(1, 0, 0, 1, 486.96097109480957, 185.7665953333833)"/><path fill="#3C2415" d="M180,297.6c-1.8,0-3-0.3-3-0.3c-3-0.8-5.2-2.4-6.3-4.8c-2-4.2,0.2-9.2,0.3-9.4c0.3-0.8,1.3-1.1,2-0.8&#10;&#9;&#9;&#9;&#9;c0.8,0.3,1.1,1.3,0.8,2c0,0-1.7,3.9-0.3,6.8c0.7,1.5,2.1,2.5,4.3,3.1c0.3,0.1,8,2,12.5-6.4c0.4-0.8,1.3-1,2.1-0.6&#10;&#9;&#9;&#9;&#9;c0.8,0.4,1,1.3,0.6,2.1C189.2,296.4,183.5,297.6,180,297.6z" transform="matrix(1, 0, 0, 1, 486.96097109480957, 185.7665953333833)"/><path d="M 155.199994 282.600006 A 9.3 9.3 0 0 1 145.899994 291.900006 A 9.3 9.3 0 0 1 136.599994 282.600006 A 9.3 9.3 0 0 1 145.899994 273.300006 A 9.3 9.3 0 0 1 155.199994 282.600006 Z" fill="#3C2415" transform="matrix(1, 0, 0, 1, 486.96097109480957, 185.7665953333833)"/><path d="M 136.499997 306.799988 A 14.8 14.8 0 0 1 121.699997 321.599988 A 14.8 14.8 0 0 1 106.899997 306.799988 A 14.8 14.8 0 0 1 121.699997 291.999988 A 14.8 14.8 0 0 1 136.499997 306.799988 Z" fill="#EF4136" transform="matrix(1, 0, 0, 1, 486.96097109480957, 185.7665953333833)"/><path d="M 119.299999 301.200012 A 3.2 3.2 0 0 1 116.099998 304.400012 A 3.2 3.2 0 0 1 112.899998 301.200012 A 3.2 3.2 0 0 1 116.099998 298.000012 A 3.2 3.2 0 0 1 119.299999 301.200012 Z" fill="#FFFFFF" transform="matrix(1, 0, 0, 1, 486.96097109480957, 185.7665953333833)"/><path fill="#3C2415" d="M154.1,412.2c-0.7,0-1.3-0.1-2-0.3c-7-1.7-12.8-12.1-13.1-12.5c-0.4-0.7-0.1-1.7,0.6-2.1&#10;&#9;&#9;&#9;&#9;c0.7-0.4,1.7-0.1,2.1,0.6c1.5,2.7,6.4,9.9,11.1,11.1c1.4,0.3,2.6,0.1,3.8-0.6c0.1,0,5.6-4.6-6-32c-0.3-0.8,0-1.7,0.8-2&#10;&#9;&#9;&#9;&#9;c0.8-0.3,1.7,0,2,0.8c12.6,29.7,6.2,35.1,4.8,35.9C157,411.8,155.6,412.2,154.1,412.2z" transform="matrix(1, 0, 0, 1, 486.96097109480957, 185.7665953333833)"/><path fill="#3C2415" d="M110.8,136.9c-16.1,11.5-25.2,25.9-30,37.2C76.5,160,74.4,141.9,77,119C77,119,93.2,122.5,110.8,136.9z" transform="matrix(1, 0, 0, 1, 486.96097109480957, 185.7665953333833)"/><path fill="#3C2415" d="M80.8,176.4c0,0-0.1,0-0.1,0c-1-0.1-1.8-0.7-2.1-1.6c-5-16.3-6.3-35.2-3.8-56.1c0.1-0.7,0.4-1.2,1-1.6&#10;&#9;&#9;&#9;&#9;&#9;c0.5-0.4,1.2-0.5,1.8-0.4c0.7,0.2,16.9,3.9,34.7,18.4c0.6,0.5,0.9,1.1,0.8,1.9c0,0.7-0.4,1.4-1,1.8&#10;&#9;&#9;&#9;&#9;&#9;c-16.3,11.7-24.9,26.1-29.2,36.2C82.5,175.8,81.7,176.4,80.8,176.4z M79.1,121.9c-1.7,16.7-0.9,32,2.3,45.5&#10;&#9;&#9;&#9;&#9;&#9;c4.8-9.4,12.8-20.8,25.6-30.6C94.9,127.6,83.8,123.4,79.1,121.9z" transform="matrix(1, 0, 0, 1, 486.96097109480957, 185.7665953333833)"/><path fill="#FEF163" d="M248.1,445.2l15.6,12.9c0,0,9.1,9.9-26.2-5.8C237.5,452.3,244.9,449.7,248.1,445.2z" transform="matrix(1, 0, 0, 1, 486.96097109480957, 185.7665953333833)"/><path fill="#3C2415" d="M263.1,463.5c-3.5,0-10.7-2.1-26.5-9.1c-0.9-0.4-1.4-1.3-1.4-2.2c0-0.9,0.6-1.8,1.5-2.1&#10;&#9;&#9;&#9;&#9;&#9;c0.1,0,6.7-2.4,9.5-6.4c0.4-0.5,0.9-0.9,1.6-1c0.6-0.1,1.3,0.1,1.8,0.5l15.6,12.9c0.1,0.1,0.2,0.1,0.2,0.2&#10;&#9;&#9;&#9;&#9;&#9;c1.4,1.5,2.4,3.7,1.1,5.5C265.9,462.8,265.1,463.5,263.1,463.5z M243.1,452.3c9.8,4.2,15,5.8,17.6,6.4l-12.3-10.2&#10;&#9;&#9;&#9;&#9;&#9;C246.8,450,244.9,451.3,243.1,452.3z" transform="matrix(1, 0, 0, 1, 486.96097109480957, 185.7665953333833)"/><path fill="#FEF163" d="M235.1,194c0,0,23.3,6.5,37.7,22.8c0,0,20.1-11.2,29.6-42.7c4.3-14.1,6.4-32.2,3.7-55.1&#10;&#9;&#9;&#9;&#9;&#9;c0,0-16.1,3.6-33.7,18C258.6,148.2,243.8,166.1,235.1,194z" transform="matrix(1, 0, 0, 1, 486.96097109480957, 185.7665953333833)"/><path fill="#3C2415" d="M272.8,219.1c-0.6,0-1.3-0.3-1.7-0.8c-13.7-15.5-36.4-22-36.6-22.1c-0.6-0.2-1.1-0.6-1.4-1.1&#10;&#9;&#9;&#9;&#9;&#9;c-0.3-0.5-0.4-1.2-0.2-1.8c7.5-24.2,20.4-43.7,38.1-58.2c17.8-14.6,34-18.3,34.7-18.4c0.6-0.1,1.3,0,1.8,0.4&#10;&#9;&#9;&#9;&#9;&#9;c0.5,0.4,0.9,1,1,1.6c2.4,20.9,1.2,39.8-3.8,56.1c-9.7,32.1-29.9,43.6-30.7,44C273.5,219,273.2,219.1,272.8,219.1z M238,192.5&#10;&#9;&#9;&#9;&#9;&#9;c6.1,2,23.1,8.5,35.2,21.3c4.7-3.3,19.4-15.2,27-40.4c4.6-15,5.9-32.3,3.9-51.5c-5.1,1.6-17.3,6.2-30.3,16.8&#10;&#9;&#9;&#9;&#9;&#9;C257.4,152.1,245.3,170.2,238,192.5z" transform="matrix(1, 0, 0, 1, 486.96097109480957, 185.7665953333833)"/><path fill="#3C2415" d="M203.2,297.6c-3.5,0-9.3-1.2-13-8.2c-0.4-0.8-0.1-1.7,0.6-2.1c0.7-0.4,1.7-0.1,2.1,0.6&#10;&#9;&#9;&#9;&#9;c4.4,8.4,12.2,6.4,12.5,6.4c2.1-0.6,3.6-1.6,4.3-3.1c1.4-2.9-0.3-6.8-0.3-6.8c-0.3-0.8,0-1.7,0.8-2c0.8-0.3,1.7,0,2,0.8&#10;&#9;&#9;&#9;&#9;c0.1,0.2,2.3,5.2,0.3,9.4c-1.1,2.3-3.2,3.9-6.3,4.8C206.2,297.3,205,297.6,203.2,297.6z" transform="matrix(1, 0, 0, 1, 486.96097109480957, 185.7665953333833)"/><path d="M 246.600003 282.600006 A 9.3 9.3 0 0 1 237.300003 291.900006 A 9.3 9.3 0 0 1 228.000003 282.600006 A 9.3 9.3 0 0 1 237.300003 273.300006 A 9.3 9.3 0 0 1 246.600003 282.600006 Z" fill="#3C2415" transform="matrix(1, 0, 0, 1, 486.96097109480957, 185.7665953333833)"/><path d="M 276.3 306.799988 A 14.8 14.8 0 0 1 261.5 321.599988 A 14.8 14.8 0 0 1 246.7 306.799988 A 14.8 14.8 0 0 1 261.5 291.999988 A 14.8 14.8 0 0 1 276.3 306.799988 Z" fill="#EF4136" transform="matrix(1, 0, 0, 1, 486.96097109480957, 185.7665953333833)"/><path d="M 270.300006 301.200012 A 3.2 3.2 0 0 1 267.100006 304.400012 A 3.2 3.2 0 0 1 263.900006 301.200012 A 3.2 3.2 0 0 1 267.100006 298.000012 A 3.2 3.2 0 0 1 270.300006 301.200012 Z" fill="#FFFFFF" transform="matrix(1, 0, 0, 1, 486.96097109480957, 185.7665953333833)"/><path fill="#3C2415" d="M229.1,412.2c-1.5,0-2.9-0.4-4.2-1.3c-1.3-0.7-7.7-6.1,4.9-35.8c0.3-0.8,1.2-1.1,2-0.8&#10;&#9;&#9;&#9;&#9;c0.8,0.3,1.1,1.2,0.8,2c-11.6,27.4-6.1,32-6,32c1.2,0.8,2.4,1,3.8,0.6c4.7-1.2,9.6-8.4,11.1-11.1c0.4-0.7,1.4-1,2.1-0.6&#10;&#9;&#9;&#9;&#9;c0.7,0.4,1,1.4,0.6,2.1c-0.2,0.4-6.1,10.8-13.1,12.5C230.4,412.1,229.7,412.2,229.1,412.2z" transform="matrix(1, 0, 0, 1, 486.96097109480957, 185.7665953333833)"/><path fill="#3C2415" d="M272.4,136.9c16.1,11.5,25.2,25.9,30,37.2c4.3-14.1,6.4-32.2,3.7-55.1C306.1,119,290,122.5,272.4,136.9z&#10;&#9;&#9;&#9;&#9;&#9;" transform="matrix(1, 0, 0, 1, 486.96097109480957, 185.7665953333833)"/><path fill="#3C2415" d="M302.4,176.4c-0.9,0-1.8-0.5-2.1-1.4c-4.3-10.1-12.9-24.5-29.2-36.2c-0.6-0.4-0.9-1.1-1-1.8&#10;&#9;&#9;&#9;&#9;&#9;c0-0.7,0.3-1.4,0.8-1.9c17.8-14.6,34-18.3,34.7-18.4c0.6-0.1,1.3,0,1.8,0.4c0.5,0.4,0.9,1,1,1.6c2.4,20.9,1.2,39.8-3.8,56.1&#10;&#9;&#9;&#9;&#9;&#9;c-0.3,0.9-1.1,1.6-2.1,1.6C302.5,176.4,302.5,176.4,302.4,176.4z M276.2,136.9c12.8,9.8,20.8,21.2,25.6,30.6&#10;&#9;&#9;&#9;&#9;&#9;c3.2-13.6,4-28.8,2.3-45.5C299.4,123.4,288.3,127.6,276.2,136.9z" transform="matrix(1, 0, 0, 1, 486.96097109480957, 185.7665953333833)"/>
<path d="M 857.9959716796875 620.9337158203125" style="fill: rgb(255, 254, 242); fill-opacity: 0; stroke: rgb(0, 0, 0); stroke-opacity: 1; stroke-width: 0; paint-order: fill;"/><path d="M 697.47900390625 512.7200317382812" style="fill: rgb(232, 230, 210); fill-opacity: 1; stroke: rgb(0, 0, 0); stroke-opacity: 1; stroke-width: 0; paint-order: fill;"/></svg>